<svg width="1200" height="630" viewBox="0 0 1200 630" fill="none" xmlns="http://www.w3.org/2000/svg">
  <rect width="1200" height="630" fill="#050A0E"/>
  <circle cx="192" cy="120" r="220" fill="#00D4FF" opacity="0.12"/>
  <circle cx="1000" cy="160" r="260" fill="#7C3AED" opacity="0.14"/>
  <circle cx="690" cy="610" r="250" fill="#10B981" opacity="0.08"/>
  <path d="M308 404C382 336 502 318 606 356C708 393 824 371 896 316C820 457 636 504 468 468C390 451 340 426 308 404Z" fill="#1E293B"/>
  <path d="M430 355H790L720 430H498L430 355Z" fill="#1A4A2E"/>
  <path d="M362 434H838L739 524H462L362 434Z" fill="#111827"/>
  <path d="M565 524L604 610L648 524H565Z" fill="#F97316" opacity="0.7"/>
  <path d="M386 310L432 194L478 310H386Z" fill="#00D4FF" opacity="0.9"/>
  <circle cx="802" cy="240" r="58" fill="#4C1D95"/>
  <circle cx="802" cy="240" r="80" stroke="#7C3AED" stroke-width="4" opacity="0.55"/>
  <rect x="708" y="310" width="122" height="102" rx="14" fill="#0F2A1A" stroke="#10B981" stroke-width="3"/>
  <text x="80" y="180" fill="#F0F9FF" font-family="Syne, Arial, sans-serif" font-size="74" font-weight="800">Soumik Chaudhuri</text>
  <text x="82" y="250" fill="#00D4FF" font-family="JetBrains Mono, monospace" font-size="28">Flutter x AI/ML Developer | Full Stack Engineer</text>
  <text x="82" y="308" fill="#CBD5E1" font-family="DM Sans, Arial, sans-serif" font-size="30">Building Apps. Training AI. Shipping Products.</text>
  <text x="82" y="356" fill="#94A3B8" font-family="DM Sans, Arial, sans-serif" font-size="24">I build the app and the brain inside it.</text>
</svg>
